<svg width="24" height="24" viewBox="0 0 24 24" fill="none" xmlns="http://www.w3.org/2000/svg">
    <path d="M18.707 8.29276L15.707 5.29276C15.316 4.90176 14.684 4.90176 14.293 5.29276L12 7.58576L16.414 11.9998L18.707 9.70676C19.098 9.31576 19.098 8.68376 18.707 8.29276Z" fill="white"/>
    <path d="M10.5858 9L1.29276 18.293C0.901762 18.684 0.901762 19.316 1.29276 19.707L4.29276 22.707C4.48776 22.902 4.74376 23 4.99976 23C5.25576 23 5.51176 22.902 5.70676 22.707L14.9998 13.414L10.5858 9Z" fill="white"/>
    <path d="M16 0H14V3H16V0Z" fill="white"/>
    <path d="M22.0704 3.34291L20.6562 1.92871L18.535 4.05001L19.9492 5.46421L22.0704 3.34291Z" fill="white"/>
    <path d="M24 10L24 8L21 8L21 10L24 10Z" fill="white"/>
    <path d="M20.6571 16.0709L22.0713 14.6567L19.95 12.5354L18.5358 13.9496L20.6571 16.0709Z" fill="white"/>
    <path d="M9.3434 1.92906L7.9292 3.34326L10.0505 5.46456L11.4647 4.05036L9.3434 1.92906Z" fill="white"/>
</svg>
