<svg width="42" height="51" viewBox="0 0 42 51" fill="none" xmlns="http://www.w3.org/2000/svg">
    <path fill-rule="evenodd" clip-rule="evenodd" d="M8.33334 13.0133V14H4.33067C3.75371 13.9996 3.19588 14.2069 2.75914 14.5839C2.32239 14.9609 2.03589 15.4825 1.95201 16.0533L1.37334 20.0347C0.234603 27.8065 0.234603 35.7028 1.37334 43.4747C1.62155 45.1671 2.42671 46.7286 3.66158 47.9123C4.89645 49.0959 6.49057 49.8343 8.19201 50.0107L9.86934 50.1867C17.272 50.9547 24.7333 50.9547 32.136 50.1867L33.816 50.0107C35.517 49.8338 37.1105 49.0951 38.3448 47.9115C39.5791 46.7279 40.3839 45.1667 40.632 43.4747C41.7707 35.7028 41.7707 27.8065 40.632 20.0347L40.0507 16.0533C39.9668 15.4825 39.6803 14.9609 39.2435 14.5839C38.8068 14.2069 38.249 13.9996 37.672 14H33.6667V13.0133C33.6667 9.65394 32.3322 6.43212 29.9567 4.05666C27.5812 1.6812 24.3594 0.34668 21 0.34668C17.6406 0.34668 14.4188 1.6812 12.0433 4.05666C9.66786 6.43212 8.33334 9.65394 8.33334 13.0133ZM23.16 4.62135C21.8797 4.29186 20.541 4.25964 19.2464 4.52714C17.9517 4.79464 16.7354 5.35477 15.6905 6.16467C14.6457 6.97458 13.7999 8.01278 13.218 9.19984C12.6361 10.3869 12.3335 11.6913 12.3333 13.0133V14H29.6667V13.0133C29.6664 11.091 29.027 9.22331 27.8491 7.70411C26.6712 6.18492 25.0217 5.10045 23.16 4.62135ZM12.3333 18C12.3333 17.4696 12.1226 16.9609 11.7476 16.5858C11.3725 16.2107 10.8638 16 10.3333 16C9.80291 16 9.2942 16.2107 8.91913 16.5858C8.54405 16.9609 8.33334 17.4696 8.33334 18V23.3333C8.33334 23.8638 8.54405 24.3725 8.91913 24.7476C9.2942 25.1226 9.80291 25.3333 10.3333 25.3333C10.8638 25.3333 11.3725 25.1226 11.7476 24.7476C12.1226 24.3725 12.3333 23.8638 12.3333 23.3333V18ZM33.6667 18C33.6667 17.4696 33.456 16.9609 33.0809 16.5858C32.7058 16.2107 32.1971 16 31.6667 16C31.1362 16 30.6275 16.2107 30.2525 16.5858C29.8774 16.9609 29.6667 17.4696 29.6667 18V23.3333C29.6667 23.8638 29.8774 24.3725 30.2525 24.7476C30.6275 25.1226 31.1362 25.3333 31.6667 25.3333C32.1971 25.3333 32.7058 25.1226 33.0809 24.7476C33.456 24.3725 33.6667 23.8638 33.6667 23.3333V18Z" fill="#A1B6D0"/>
</svg>
