<svg width="23" height="24" viewBox="0 0 23 24" fill="none" xmlns="http://www.w3.org/2000/svg">
    <path d="M9.5 14H1.5C0.948 14 0.5 13.552 0.5 13V1C0.5 0.448 0.948 0 1.5 0H9.5C10.052 0 10.5 0.448 10.5 1V13C10.5 13.552 10.052 14 9.5 14Z" fill="#212121"/>
    <path d="M9.5 24H1.5C0.948 24 0.5 23.552 0.5 23V17C0.5 16.448 0.948 16 1.5 16H9.5C10.052 16 10.5 16.448 10.5 17V23C10.5 23.552 10.052 24 9.5 24Z" fill="#212121"/>
    <path d="M21.5 8H13.5C12.948 8 12.5 7.552 12.5 7V1C12.5 0.448 12.948 0 13.5 0H21.5C22.052 0 22.5 0.448 22.5 1V7C22.5 7.552 22.052 8 21.5 8Z" fill="#212121"/>
    <path d="M21.5 24H13.5C12.948 24 12.5 23.552 12.5 23V11C12.5 10.448 12.948 10 13.5 10H21.5C22.052 10 22.5 10.448 22.5 11V23C22.5 23.552 22.052 24 21.5 24Z" fill="#212121"/>
</svg>
