<svg width="23" height="22" viewBox="0 0 23 22" fill="none" xmlns="http://www.w3.org/2000/svg">
    <path d="M1.5 11.8799V10.1199C1.5 9.07994 2.35 8.21994 3.4 8.21994C5.21 8.21994 5.95 6.93994 5.04 5.36994C4.52 4.46994 4.83 3.29994 5.74 2.77994L7.47 1.78994C8.26 1.31994 9.28 1.59994 9.75 2.38994L9.86 2.57994C10.76 4.14994 12.24 4.14994 13.15 2.57994L13.26 2.38994C13.73 1.59994 14.75 1.31994 15.54 1.78994L17.27 2.77994C18.18 3.29994 18.49 4.46994 17.97 5.36994C17.06 6.93994 17.8 8.21994 19.61 8.21994C20.65 8.21994 21.51 9.06994 21.51 10.1199V11.8799C21.51 12.9199 20.66 13.7799 19.61 13.7799C17.8 13.7799 17.06 15.0599 17.97 16.6299C18.49 17.5399 18.18 18.6999 17.27 19.2199L15.54 20.2099C14.75 20.6799 13.73 20.3999 13.26 19.6099L13.15 19.4199C12.25 17.8499 10.77 17.8499 9.86 19.4199L9.75 19.6099C9.28 20.3999 8.26 20.6799 7.47 20.2099L5.74 19.2199C5.3041 18.969 4.98558 18.5553 4.85435 18.0697C4.72311 17.5841 4.78988 17.0663 5.04 16.6299C5.95 15.0599 5.21 13.7799 3.4 13.7799C2.35 13.7799 1.5 12.9199 1.5 11.8799V11.8799Z" stroke="#292D32" stroke-width="1.5" stroke-miterlimit="10" stroke-linecap="round" stroke-linejoin="round"/>
</svg>
