<svg width="25" height="24" viewBox="0 0 25 24" fill="none" xmlns="http://www.w3.org/2000/svg">
    <path d="M19.8898 4.75972L14.2021 1.47031C13.113 0.84323 11.4078 0.84323 10.3186 1.47031L4.57593 4.78172C2.29864 6.32192 2.16663 6.55294 2.16663 9.00625V14.98C2.16663 17.4333 2.29864 17.6753 4.61993 19.2375L10.3076 22.5269C10.8577 22.846 11.5618 23 12.2549 23C12.948 23 13.6521 22.846 14.1911 22.5269L19.9338 19.2155C22.2111 17.6753 22.3431 17.4443 22.3431 14.991V9.00625C22.3431 6.55294 22.2111 6.32192 19.8898 4.75972ZM12.2549 15.5741C10.2856 15.5741 8.67944 13.9679 8.67944 11.9986C8.67944 10.0294 10.2856 8.42318 12.2549 8.42318C14.2241 8.42318 15.8303 10.0294 15.8303 11.9986C15.8303 13.9679 14.2241 15.5741 12.2549 15.5741Z" fill="#C4C4CD"/>
</svg>
