<svg width="23" height="22" viewBox="0 0 23 22" fill="none" xmlns="http://www.w3.org/2000/svg">
    <path d="M1.5 11.8804V10.1204C1.5 9.08042 2.35 8.22043 3.4 8.22043C5.21 8.22043 5.95 6.94042 5.04 5.37042C4.52 4.47042 4.83 3.30042 5.74 2.78042L7.47 1.79042C8.26 1.32042 9.28 1.60042 9.75 2.39042L9.86 2.58042C10.76 4.15042 12.24 4.15042 13.15 2.58042L13.26 2.39042C13.73 1.60042 14.75 1.32042 15.54 1.79042L17.27 2.78042C18.18 3.30042 18.49 4.47042 17.97 5.37042C17.06 6.94042 17.8 8.22043 19.61 8.22043C20.65 8.22043 21.51 9.07042 21.51 10.1204V11.8804C21.51 12.9204 20.66 13.7804 19.61 13.7804C17.8 13.7804 17.06 15.0604 17.97 16.6304C18.49 17.5404 18.18 18.7004 17.27 19.2204L15.54 20.2104C14.75 20.6804 13.73 20.4004 13.26 19.6104L13.15 19.4204C12.25 17.8504 10.77 17.8504 9.86 19.4204L9.75 19.6104C9.28 20.4004 8.26 20.6804 7.47 20.2104L5.74 19.2204C5.3041 18.9694 4.98558 18.5558 4.85435 18.0702C4.72311 17.5846 4.78988 17.0668 5.04 16.6304C5.95 15.0604 5.21 13.7804 3.4 13.7804C2.35 13.7804 1.5 12.9204 1.5 11.8804Z" fill="black" stroke="#292D32" stroke-width="1.5" stroke-miterlimit="10" stroke-linecap="round" stroke-linejoin="round"/>
    <path d="M11.5 14C12.2956 14 13.0587 13.6839 13.6213 13.1213C14.1839 12.5587 14.5 11.7956 14.5 11C14.5 10.2044 14.1839 9.44129 13.6213 8.87868C13.0587 8.31607 12.2956 8 11.5 8C10.7044 8 9.94129 8.31607 9.37868 8.87868C8.81607 9.44129 8.5 10.2044 8.5 11C8.5 11.7956 8.81607 12.5587 9.37868 13.1213C9.94129 13.6839 10.7044 14 11.5 14V14Z" stroke="white" stroke-width="1.5" stroke-miterlimit="10" stroke-linecap="round" stroke-linejoin="round"/>
</svg>
