<svg width="16" height="16" viewBox="0 0 16 16" fill="none" xmlns="http://www.w3.org/2000/svg">
    <path d="M14 3.98763C11.78 3.76763 9.54667 3.6543 7.32 3.6543C6 3.6543 4.68 3.72096 3.36 3.8543L2 3.98763" stroke="#211D1D" stroke-width="1.5" stroke-linecap="round" stroke-linejoin="round"/>
    <path d="M5.66663 3.31398L5.81329 2.44065C5.91996 1.80732 5.99996 1.33398 7.12663 1.33398H8.87329C9.99996 1.33398 10.0866 1.83398 10.1866 2.44732L10.3333 3.31398" stroke="#211D1D" stroke-width="1.5" stroke-linecap="round" stroke-linejoin="round"/>
    <path d="M12.5667 6.09375L12.1334 12.8071C12.06 13.8537 12 14.6671 10.14 14.6671H5.86002C4.00002 14.6671 3.94002 13.8537 3.86668 12.8071L3.43335 6.09375" stroke="#211D1D" stroke-width="1.5" stroke-linecap="round" stroke-linejoin="round"/>
    <path d="M6.88672 11H9.10672" stroke="#211D1D" stroke-width="1.5" stroke-linecap="round" stroke-linejoin="round"/>
    <path d="M6.33337 8.33398H9.66671" stroke="#211D1D" stroke-width="1.5" stroke-linecap="round" stroke-linejoin="round"/>
</svg>
