<svg width="17" height="16" viewBox="0 0 17 16" fill="none" xmlns="http://www.w3.org/2000/svg">
    <path d="M5.27788 12.773L2.42035 9.91538C1.47121 8.96624 1.47121 8.00705 2.42035 7.05791L7.18624 2.29199L12.4267 7.53245C12.6892 7.79498 12.6892 8.21913 12.4267 8.48165L8.13538 12.773C7.18624 13.7221 6.22702 13.7221 5.27788 12.773Z" stroke="#211D1D" stroke-width="1.5" stroke-miterlimit="10" stroke-linecap="round" stroke-linejoin="round"/>
    <path d="M6.22705 1.33301L7.18627 2.28215" stroke="#211D1D" stroke-width="1.5" stroke-miterlimit="10" stroke-linecap="round" stroke-linejoin="round"/>
    <path d="M13.7192 10.6328C13.7192 10.6328 12.3965 12.0665 12.3965 12.945C12.3965 13.672 12.9922 14.2678 13.7192 14.2678C14.4462 14.2678 15.042 13.672 15.042 12.945C15.0319 12.0665 13.7192 10.6328 13.7192 10.6328Z" stroke="#211D1D" stroke-width="1.5" stroke-linecap="round" stroke-linejoin="round"/>
</svg>
