<svg width="24" height="24" viewBox="0 0 24 24" fill="none" xmlns="http://www.w3.org/2000/svg">
    <path d="M5 4.29333L6 4L5.70667 5L6 6L5 5.70667L4 6L4.29333 5L4 4L5 4.29333Z" fill="white" stroke="white" stroke-linecap="round" stroke-linejoin="round"/>
    <path d="M2 11.2933L3 11L2.70667 12L3 13L2 12.7067L1 13L1.29333 12L1 11L2 11.2933Z" stroke="white" stroke-linecap="round" stroke-linejoin="round"/>
    <path d="M5 17.2933L6 17L5.70667 18L6 19L5 18.7067L4 19L4.29333 18L4 17L5 17.2933Z" stroke="white" stroke-linecap="round" stroke-linejoin="round"/>
    <path d="M12 20.2933L13 20L12.7067 21L13 22L12 21.7067L11 22L11.2933 21L11 20L12 20.2933Z" stroke="white" stroke-linecap="round" stroke-linejoin="round"/>
    <path d="M12 2.29333L13 2L12.7067 3L13 4L12 3.70667L11 4L11.2933 3L11 2L12 2.29333Z" stroke="white" stroke-linecap="round" stroke-linejoin="round"/>
    <path d="M19 5.29333L20 5L19.7067 6L20 7L19 6.70667L18 7L18.2933 6L18 5L19 5.29333Z" stroke="white" stroke-linecap="round" stroke-linejoin="round"/>
    <path d="M21 11.2933L22 11L21.7067 12L22 13L21 12.7067L20 13L20.2933 12L20 11L21 11.2933Z" stroke="white" stroke-linecap="round" stroke-linejoin="round"/>
    <rect x="10.0607" y="11.8281" width="2.5" height="14.5" rx="1.25" transform="rotate(-45 10.0607 11.8281)" stroke="white" stroke-width="1.5"/>
    <rect x="14.6569" y="17.4854" width="4" height="8" rx="2" transform="rotate(-45 14.6569 17.4854)" fill="white"/>
</svg>
