<svg width="16" height="16" viewBox="0 0 16 16" fill="none" xmlns="http://www.w3.org/2000/svg">
    <path fill-rule="evenodd" clip-rule="evenodd" d="M8.15131 0.861278C7.89096 0.600928 7.46885 0.600928 7.2085 0.861278L4.97517 3.09461C4.71482 3.35496 4.71482 3.77707 4.97517 4.03742C5.23552 4.29777 5.65763 4.29777 5.91798 4.03742L7.01331 2.94209V9.66601C7.01331 10.0342 7.31178 10.3327 7.67997 10.3327C8.04816 10.3327 8.34664 10.0342 8.34664 9.66601V2.94222L9.44184 4.03742C9.70219 4.29777 10.1243 4.29777 10.3846 4.03742C10.645 3.77707 10.645 3.35496 10.3846 3.09461L8.15131 0.861278ZM9.97575 5.54213C10.0073 5.17529 10.3303 4.90353 10.6972 4.93511C11.9967 5.04702 13.0461 5.44963 13.7476 6.31427C14.4343 7.1605 14.6866 8.32828 14.6866 9.73932V9.82599C14.6866 11.3819 14.3791 12.6446 13.5222 13.5016C12.6652 14.3585 11.4026 14.666 9.84663 14.666H5.50663C3.95069 14.666 2.68801 14.3585 1.83105 13.5016C0.974104 12.6446 0.666626 11.3819 0.666626 9.82599V9.73932C0.666626 8.33846 0.915587 7.17802 1.59105 6.33369C2.28192 5.4701 3.31634 5.06169 4.59808 4.9422C4.96468 4.90803 5.28957 5.17751 5.32375 5.54411C5.35792 5.91071 5.08844 6.2356 4.72184 6.26978C3.64358 6.37029 3.01466 6.68855 2.63221 7.16662C2.23433 7.66396 1.99996 8.46018 1.99996 9.73932V9.82599C1.99996 11.2501 2.28915 12.074 2.77386 12.5588C3.25858 13.0435 4.08256 13.3327 5.50663 13.3327H9.84663C11.2707 13.3327 12.0947 13.0435 12.5794 12.5588C13.0641 12.074 13.3533 11.2501 13.3533 9.82599V9.73932C13.3533 8.45037 13.1156 7.65148 12.7123 7.15438C12.3239 6.67568 11.6832 6.35829 10.5828 6.26353C10.2159 6.23194 9.94416 5.90896 9.97575 5.54213Z" fill="#211D1D"/>
</svg>
