<svg width="80" height="80" viewBox="0 0 80 80" fill="none" xmlns="http://www.w3.org/2000/svg">
    <rect width="80" height="80" fill="black"/>
    <path fill-rule="evenodd" clip-rule="evenodd" d="M58.8725 24.0421H59.7974V24H66.0205C65.9647 24.0831 65.9036 24.1629 65.8382 24.2387L41.7036 48.421C41.5652 48.5607 41.3809 48.6455 41.1849 48.6597H34.1074H33.7009L53.5887 28.393H53.1822H26.9032C25.1447 28.3739 23.4177 28.8611 21.9277 29.7965V29.5861C22.2885 28.7711 22.6946 27.9711 23.1068 27.1591C23.3831 26.6148 23.6622 26.0651 23.9321 25.5018C24.1143 25.1369 24.2964 24.772 24.4505 24.393C24.4854 24.2821 24.5574 24.1866 24.6545 24.1227C24.7515 24.0587 24.8678 24.0303 24.9833 24.0421H58.1016C58.3584 24.0563 58.6158 24.0563 58.8725 24.0421ZM25.4736 51.6211H52.6778C54.2602 51.5756 55.7985 51.0896 57.1206 50.2176C57.1277 50.2922 57.1277 50.3675 57.1206 50.4422L54.892 54.9614C54.7928 55.1247 54.7129 55.299 54.6538 55.4807C54.5277 55.9018 54.2753 56 53.8408 56H22.1942C22.1221 55.9718 22.0418 55.9718 21.9697 56H13L13.2101 55.7473L37.3446 31.5649C37.4715 31.4353 37.6407 31.3558 37.8213 31.3405H45.0531H45.3895C38.7181 38.1194 32.1309 44.8281 25.4736 51.6211Z" fill="white"/>
</svg>
